<?xml version="1.0" standalone="no"?><!-- Generator: Gravit.io --><svg xmlns="http://www.w3.org/2000/svg" xmlns:xlink="http://www.w3.org/1999/xlink" style="isolation:isolate" viewBox="0 0 150 90" width="150" height="90"><defs><clipPath id="_clipPath_1w7CDJ2Zo2G3j7EPZ0lT7Ip6ipe0jW2w"><rect width="150" height="90"/></clipPath></defs><g clip-path="url(#_clipPath_1w7CDJ2Zo2G3j7EPZ0lT7Ip6ipe0jW2w)"><circle vector-effect="non-scaling-stroke" cx="94" cy="21" r="5" fill="rgb(229,229,229)"/><circle vector-effect="non-scaling-stroke" cx="38" cy="15" r="5" fill="rgb(229,229,229)"/><circle vector-effect="non-scaling-stroke" cx="5" cy="57" r="5" fill="rgb(229,229,229)"/><circle vector-effect="non-scaling-stroke" cx="150" cy="27" r="5" fill="rgb(229,229,229)"/><circle vector-effect="non-scaling-stroke" cx="61" cy="62" r="5" fill="rgb(229,229,229)"/><circle vector-effect="non-scaling-stroke" cx="37" cy="100" r="5" fill="rgb(229,229,229)"/><circle vector-effect="non-scaling-stroke" cx="13" cy="146" r="5" fill="rgb(229,229,229)"/><line x1="42.5" y1="186.5" x2="15.5" y2="150.5" vector-effect="non-scaling-stroke" stroke-width="1" stroke="rgb(229,229,229)" stroke-linejoin="miter" stroke-linecap="square" stroke-miterlimit="4"/><circle vector-effect="non-scaling-stroke" cx="45" cy="189" r="5" fill="rgb(229,229,229)"/><circle vector-effect="non-scaling-stroke" cx="21" cy="236" r="5" fill="rgb(229,229,229)"/><path d=" M 32.5 100.5 L 0.5 102.5 M 9.5 142.5 L 0.5 130.5 M 7.5 147.5 L 0.5 147.5" fill-rule="evenodd" fill="none" vector-effect="non-scaling-stroke" stroke-width="1" stroke="rgb(229,229,229)" stroke-linejoin="miter" stroke-linecap="square" stroke-miterlimit="4"/><circle vector-effect="non-scaling-stroke" cx="83" cy="110" r="5" fill="rgb(229,229,229)"/><path d=" M 147.5 26.5 L 98.5 21.5 M 89.5 20.5 L 42.5 15.5 M 32.5 14.5 L 0.5 11.5 M 55.5 61.5 L 9.5 58.5 M 91.157 24.398 L 62.01 61.606 M 34.5 103.5 L 15.5 141.5 M 42.5 193.5 L 23.5 231.5 M 36 17 L 6.854 54.209 M 58.5 57.5 L 40.5 19.5 M 33.5 95.5 L 7.5 61.5 M 81.468 105.614 L 63.468 67.614 M 92.5 16.5 L 84.5 0.5 M 38.5 16.5 L 30.5 0.5 M 40.5 11.5 L 49.5 0.5" fill-rule="evenodd" fill="none" vector-effect="non-scaling-stroke" stroke-width="1" stroke="rgb(229,229,229)" stroke-linejoin="miter" stroke-linecap="square" stroke-miterlimit="4"/></g></svg>